<svg xmlns="http://www.w3.org/2000/svg" viewBox="0 0 207 256" role="img" aria-labelledby="title desc">
  <title id="title">Holy Ghost Preparatory School shield</title>
  <desc id="desc">Red, navy, white and gold shield inspired by the Holy Ghost Prep crest.</desc>
  <path d="M8 8h191v150c0 39-21 70-52 89-17 10-34 16-44 19-10-3-27-9-44-19C28 228 8 197 8 158V8Z" fill="#fff" stroke="#fff" stroke-width="8"/>
  <path d="M14 14h179v142c0 35-19 63-48 81-15 9-30 14-42 18-12-4-27-9-42-18-29-18-47-46-47-81V14Z" fill="#a51f37" stroke="#173a72" stroke-width="7"/>
  <path d="M14 14h79v54c0 17-11 30-27 36L14 123V14Z" fill="#fff"/>
  <path d="M52 28c0 0-9 10-9 19 0 5 3 10 9 15-11-4-21 2-25 12 10-2 18 1 23 9-1 7-5 13-12 18h28c-7-5-11-11-12-18 5-8 13-11 23-9-4-10-14-16-25-12 6-5 9-10 9-15 0-9-9-19-9-19Z" fill="#173a72"/>
  <path d="M125 61c18 24 19 43 8 58-8 11-11 21-6 30 4 7 11 8 18 6-8 15-22 23-38 20-14-3-26-15-30-30 9 9 18 11 26 5 7-5 10-14 11-25 2-22 3-44 11-64Z" fill="#f5bd33"/>
  <path d="M145 94c-8 18-9 34-3 46 7 13 20 17 35 10-10 20-27 34-49 38-26 5-51-7-67-30 18 8 33 8 45-1 10-8 15-20 17-37 1-10 8-19 22-26Z" fill="#fff"/>
</svg>
